<?xml version="1.0" encoding="utf-8"?><svg xmlns="http://www.w3.org/2000/svg" xmlns:xlink="http://www.w3.org/1999/xlink"><symbol viewBox="0 0 100 100" id="search" xmlns="http://www.w3.org/2000/svg"><path d="M41.7 3.3C20.6 3.3 3.4 20 3.4 40.7s17.1 37.4 38.3 37.4c5.9 0 11.5-1.3 16.5-3.7 2.5-1.2 5.5-.6 7.5 1.3l19.4 19c2.6 2.5 6.7 2.5 9.3 0 2.7-2.6 2.7-6.9 0-9.6L76.1 67.3c-2.2-2.1-2.7-5.5-1.1-8.1 3.2-5.4 5-11.7 5-18.4C80 20 62.9 3.3 41.7 3.3zm0 8.8C57.9 12.1 71 24.9 71 40.7S57.9 69.4 41.7 69.4 12.5 56.6 12.5 40.7s13-28.6 29.2-28.6z"/></symbol></svg>