<svg height='200' width='200'  fill="#000000" xmlns="http://www.w3.org/2000/svg" xmlns:xlink="http://www.w3.org/1999/xlink" version="1.1" x="0px" y="0px" viewBox="0 0 100 100" style="enable-background:new 0 0 100 100;" xml:space="preserve"><title>Search</title><desc>Created with Sketch.</desc><g><g transform="translate(-29.000000, -764.000000)"><g transform="translate(20.000000, 375.000000)"><g transform="translate(0.000000, 381.000000)"><g transform="translate(9.000000, 8.000000)"><path d="M41.7,3.3C20.6,3.3,3.4,20,3.4,40.7s17.1,37.4,38.3,37.4c5.9,0,11.5-1.3,16.5-3.7c2.5-1.2,5.5-0.6,7.5,1.3l19.4,19       c2.6,2.5,6.7,2.5,9.3,0l0,0c2.7-2.6,2.7-6.9,0-9.6L76.1,67.3c-2.2-2.1-2.7-5.5-1.1-8.1c3.2-5.4,5-11.7,5-18.4       C80,20,62.9,3.3,41.7,3.3L41.7,3.3z M41.7,12.1C57.9,12.1,71,24.9,71,40.7S57.9,69.4,41.7,69.4S12.5,56.6,12.5,40.7       S25.5,12.1,41.7,12.1L41.7,12.1z"></path></g></g></g></g></g></svg>